<?xml version="1.0" encoding="utf-8"?>
<!-- Generator: Adobe Illustrator 26.3.1, SVG Export Plug-In . SVG Version: 6.00 Build 0)  -->
<svg version="1.1" xmlns="http://www.w3.org/2000/svg" xmlns:xlink="http://www.w3.org/1999/xlink" x="0px" y="0px"
	 viewBox="0 0 1080 1080" style="enable-background:new 0 0 1080 1080;" xml:space="preserve">
<style type="text/css">
	.st0{display:none;}
	.st1{display:inline;}
	.st2{display:inline;fill:#722222;}
	.st3{fill:none;stroke:#F1F1F1;stroke-width:4;stroke-miterlimit:10;}
	.st4{fill:none;stroke:#F1F1F1;stroke-width:4;stroke-linecap:round;stroke-miterlimit:10;}
	.st5{fill:#F1F1F1;}
	.st6{fill:none;stroke:#F1F1F1;stroke-width:4;stroke-linecap:round;stroke-linejoin:round;stroke-miterlimit:10;}
	.st7{fill:#231F20;stroke:#F1F1F1;stroke-width:3;stroke-miterlimit:10;}
	.st8{fill:none;stroke:#F1F1F1;stroke-width:5;stroke-linecap:round;stroke-miterlimit:10;}
	.st9{fill:none;stroke:#F1F1F1;stroke-width:3;stroke-linecap:round;stroke-miterlimit:10;}
	.st10{fill:none;stroke:#F1F1F1;stroke-width:3;stroke-linecap:round;stroke-linejoin:round;stroke-miterlimit:10;}
	.st11{fill:none;stroke:#F1F1F1;stroke-width:2;stroke-linecap:round;stroke-linejoin:round;stroke-miterlimit:10;}
</style>
<g id="Layer_3">
</g>
<g id="Guides_00000041254227517408526490000002231827462916543154_" class="st0">
	<g id="Guides_00000147942479020652541740000005847723714625469831_" class="st1">
		<g>
		</g>
	</g>
	<rect x="745.4" y="-13.8" class="st2" width="6.5" height="7.6"/>
</g>
<g id="Layer_1">
	<g id="Guides">
	</g>
	<g id="Solid">
		<g>
			<path class="st3" d="M263.2,31.4c0-13.8,11.2-25,25-25s25,11.2,25,25s-11.2,25-25,25"/>
			<path class="st4" d="M284.7,14.5c10.2-0.8,19.1,6.8,20,17"/>
			<path class="st3" d="M288.2,56.4c-13.8,0-25-11.2-25-25"/>
		</g>
	</g>
	<g id="Wireframe">
		<g>
			<path class="st3" d="M202,45c0,0,40,6,44-3"/>
			<path class="st3" d="M203.7,16.1c0,0,38.4,4.4,36.3-2.4"/>
			<path class="st3" d="M199.2,32c0,0,49.8,5,48.8-2"/>
			<path class="st3" d="M225.7,7.1c0,0,11,23.9,0.7,49.9"/>
			<circle class="st3" cx="223" cy="32" r="25"/>
		</g>
	</g>
	<g id="Scale">
		<g>
			<g>
				<path class="st5" d="M158.4,56.5H139c-0.9,0-1.6-0.7-1.6-1.6V35.5c0-0.9,0.7-1.6,1.6-1.6h19.4c0.9,0,1.6,0.7,1.6,1.6v19.4
					C160,55.8,159.3,56.5,158.4,56.5z"/>
			</g>
			<g>
				<polyline class="st6" points="137.4,28 137.4,10.9 183,10.9 183,56.5 166,56.5 				"/>
			</g>
		</g>
	</g>
	<g id="Rotate">
		<g>
			<g>
				<path class="st7" d="M95.4,61c-5,0-8-10.8-8.8-21.5c0-0.4,0.3-0.8,0.7-0.8s0.8,0.3,0.8,0.7c0.4,5.7,1.4,10.9,2.8,14.6
					c1.3,3.5,2.9,5.4,4.4,5.4c1.8,0,3.7-2.7,5.1-7.3c1.5-5,2.4-11.6,2.4-18.7s-0.8-13.7-2.4-18.6c-1.4-4.6-3.3-7.3-5.1-7.3
					c-1.5,0-3.1,2-4.4,5.5c-1.4,3.7-2.4,9-2.8,14.7c0,0.4-0.4,0.8-0.8,0.7s-0.8-0.4-0.7-0.8C87.4,16.9,90.4,6,95.4,6
					c2.6,0,4.8,2.9,6.5,8.4c1.6,5.1,2.4,11.9,2.4,19.1s-0.9,14-2.4,19.1C100.3,58.1,98,61,95.4,61z"/>
			</g>
			<g>
				<path class="st7" d="M122.7,39c-0.2,0-0.4-0.1-0.6-0.2c-0.3-0.3-0.3-0.8,0-1.1c1.4-1.3,2.1-2.7,2.1-4.1c0-2.3-2-4.6-5.5-6.5
					c-3.7-2-8.9-3.4-14.8-4.1c-0.4,0-0.7-0.4-0.7-0.9s0.4-0.7,0.9-0.7c6,0.7,11.4,2.2,15.3,4.2c4.2,2.2,6.4,4.9,6.4,7.9
					c0,1.8-0.9,3.6-2.6,5.2C123.1,38.9,122.9,39,122.7,39z"/>
			</g>
			<g>
				<path class="st7" d="M95.4,46.1c-7.8,0-15.1-1.2-20.6-3.5c-5.7-2.4-8.9-5.6-8.9-9c0-3,2.2-5.7,6.4-7.9c3.9-2.1,9.4-3.6,15.5-4.2
					c0.4,0,0.8,0.3,0.8,0.7c0.1,0.4-0.3,0.8-0.7,0.9C82.2,23.6,76.9,25,73.2,27c-3.6,1.9-5.6,4.2-5.6,6.5c0,2.8,2.9,5.5,7.9,7.6
					c5.3,2.2,12.4,3.4,20,3.4c6,0,10.6-0.5,15.1-1.8c0.4-0.1,0.8,0.1,0.9,0.5s-0.1,0.8-0.5,1C106.3,45.5,101.6,46.1,95.4,46.1z"/>
			</g>
		</g>
	</g>
	<g id="Translate">
		<g>
			<line class="st8" x1="31.1" y1="39.4" x2="56.5" y2="53.5"/>
			<line class="st8" x1="31.1" y1="39.3" x2="31.1" y2="9.5"/>
			<line class="st8" x1="5" y1="53" x2="30" y2="40"/>
		</g>
	</g>
	<g id="MaterialView">
		<g id="Solid_00000047757563107241981770000012792043344609606847_">
			<g>
				<path class="st3" d="M328.4,31.4c0-13.8,11.2-25,25-25s25,11.2,25,25s-11.2,25-25,25"/>
				<path class="st4" d="M369.9,31.4"/>
				<path class="st4" d="M350,14.5"/>
				<path class="st3" d="M353.4,56.4c-13.8,0-25-11.2-25-25"/>
			</g>
		</g>
		<path class="st9" d="M329.5,31.4c0,0,35.5,11,49-4.4"/>
		<path class="st9" d="M356.4,56.3c6.7-33.5-1.2-49.8-1.2-49.8"/>
		<path class="st5" d="M357.9,34.1c0,0,16,1.8,20-8.6c0,0-8.4-19.5-20.8-19C357.1,6.4,361.2,30.7,357.9,34.1z"/>
		<path class="st5" d="M358.1,35.2c0,0,1,13.1-2.9,20c0,0-22.8,0-26.7-22.5C328.5,32.7,354.3,38.2,358.1,35.2z"/>
	</g>
	<g id="Cube">
		<polygon class="st10" points="413.5,57.2 390.9,46.6 390.9,16.1 413.5,26.7 		"/>
		<polygon class="st10" points="413.5,57.2 436,46.6 436,16.1 413.5,26.7 		"/>
		<polyline class="st10" points="436,16.1 412.9,5.7 390.9,16.1 		"/>
	</g>
	<g id="Cylinder">
		<ellipse class="st10" cx="474.8" cy="10.6" rx="18.9" ry="5.8"/>
		<path class="st10" d="M493.7,49.8c0,3.2-8.5,5.8-18.9,5.8c-10.5,0-18.9-2.6-18.9-5.8"/>
		<line class="st10" x1="455.9" y1="11.5" x2="455.9" y2="49.4"/>
		<line class="st10" x1="493.7" y1="11.1" x2="493.7" y2="49.6"/>
	</g>
	<g id="Cone_00000143596921564798414310000015246690999482221956_">
		<path id="Cone" class="st10" d="M535.3,5.8l-23.2,45c0,0,8.7,5.8,23.2,5.8c15.4,0,23.2-5.8,23.2-5.8L535.3,5.8z"/>
	</g>
	<g id="Sphere">
		<ellipse class="st10" cx="609.2" cy="29.3" rx="19.3" ry="20.1"/>
		<path class="st11" d="M609.2,9.2c0,0-9.5,15.3,0,40.2"/>
		<path class="st11" d="M590,30.3c0,0,12.5,4.8,38.6-1.5"/>
	</g>
	<g id="Plane">
		<polygon class="st10" points="640.8,27 666.6,12.9 689.4,25.3 663.9,38.1 		"/>
		<line class="st11" x1="655" y1="20.7" x2="677.1" y2="30.6"/>
		<line class="st11" x1="678.4" y1="19.6" x2="653.5" y2="31.8"/>
	</g>
	<g id="Torus">
		<path class="st4" d="M741.6,32.5c0,1.2-0.4,3.3-1,4.4c-2.9,5-12.1,7.6-23,7.6c-10.9,0-20.2-2.8-23.1-7.8c-0.6-1.1-0.9-3.1-0.9-4.3
			c0-1.3,0.5-3.7,1.2-4.9c3.1-4.8,12.1-7.2,22.8-7.2c10.5,0,19.3,2.4,22.6,7.1C741.1,28.8,741.6,31.1,741.6,32.5z"/>
		<path class="st9" d="M708.3,29.3c1.2,1.2,3.7,2.3,8.5,2.4c5.4,0.1,8.5-1.1,10.2-2.4"/>
	</g>
</g>
</svg>
